<?xml version="1.0" encoding="iso-8859-1"?>
<!-- Generator: Adobe Illustrator 19.0.0, SVG Export Plug-In . SVG Version: 6.00 Build 0)  -->
<svg version="1.1" id="Layer_1" xmlns="http://www.w3.org/2000/svg" xmlns:xlink="http://www.w3.org/1999/xlink" x="0px" y="0px"
	 viewBox="0 0 512 512" style="enable-background:new 0 0 512 512;" xml:space="preserve">
<g>
	<g>
		<path d="M440.105,377.063c-25.525-24.059-57.349-40.005-91.628-46.251c22.313-13.065,41.553-30.751,56.501-52.096
			c20.813-29.723,31.815-64.584,31.815-100.812C436.792,79.807,355.688,0,256,0C156.31,0,75.207,79.807,75.207,177.903
			c0,36.229,11.002,71.089,31.815,100.812c14.947,21.346,34.188,39.032,56.5,52.097c-34.279,6.246-66.103,22.192-91.628,46.251
			c-33.603,31.675-53.262,74.258-55.355,119.915c-0.176,3.93,1.3,7.803,4.047,10.628c2.715,2.793,6.516,4.395,10.428,4.395h449.971
			c3.913,0,7.713-1.602,10.424-4.392c2.751-2.826,4.228-6.701,4.051-10.638C493.367,451.322,473.709,408.737,440.105,377.063z
			 M32.266,496.327c2.23-41.048,20.087-79.305,50.379-107.857c29.508-27.814,68.255-43.756,109.102-44.887
			c3.721-0.103,6.856-2.809,7.501-6.474c0.646-3.665-1.376-7.28-4.837-8.647c-30.23-11.949-56.009-32.259-74.55-58.737
			c-18.959-27.074-28.98-58.826-28.98-91.821c0-89.455,74.072-162.23,165.119-162.23c91.046,0,165.118,72.775,165.118,162.23
			c0,32.996-10.022,64.747-28.98,91.821c-18.541,26.478-44.319,46.787-74.549,58.737c-3.462,1.368-5.484,4.982-4.837,8.647
			c0.646,3.665,3.78,6.372,7.501,6.474c40.847,1.131,79.593,17.073,109.103,44.887c30.295,28.554,48.152,66.813,50.38,107.857
			H32.266z"/>
	</g>
</g>
<g>
	<g>
		<path d="M460.215,470.96c-6.599-27.066-20.988-51.647-41.611-71.085c-3.149-2.968-8.109-2.821-11.078,0.327
			c-2.969,3.15-2.821,8.11,0.328,11.079c18.413,17.355,31.254,39.276,37.134,63.392c0.874,3.582,4.078,5.983,7.608,5.983
			c0.614,0,1.239-0.073,1.862-0.226C458.662,479.405,461.24,475.165,460.215,470.96z"/>
	</g>
</g>
<g>
	<g>
		<path d="M307.993,200.637c-4.328,0-7.837,3.508-7.837,7.837c0,26.257-21.645,47.618-48.251,47.618s-48.251-21.361-48.251-47.618
			c0-4.329-3.509-7.837-7.837-7.837c-4.328,0-7.837,3.508-7.837,7.837c0,34.899,28.676,63.292,63.925,63.292
			s63.925-28.393,63.925-63.292C315.83,204.145,312.321,200.637,307.993,200.637z"/>
	</g>
</g>
<g>
	<g>
		<ellipse cx="194.967" cy="152.189" rx="20.395" ry="20.165"/>
	</g>
</g>
<g>
	<g>
		<ellipse cx="308.84" cy="152.189" rx="20.394" ry="20.165"/>
	</g>
</g>
<g>
</g>
<g>
</g>
<g>
</g>
<g>
</g>
<g>
</g>
<g>
</g>
<g>
</g>
<g>
</g>
<g>
</g>
<g>
</g>
<g>
</g>
<g>
</g>
<g>
</g>
<g>
</g>
<g>
</g>
</svg>
