<svg id="Capa_1" enable-background="new 0 0 512 512" height="512" viewBox="0 0 512 512" width="512" xmlns="http://www.w3.org/2000/svg"><g><g><path d="m334 387 98 33 12-16-102-50z" fill="#6d7784"/><path d="m434.426 420-.426 27-57 65-15-13 39-82 26-4z" fill="#373e48"/><path d="m444 410 33-9 35-65-13-13-62 47v34z" fill="#373e48"/><ellipse cx="437" cy="410" fill="#dfe2e8" rx="20" ry="18"/><path d="m347 364 45 23-3 5-51-11z" fill="#373e48"/></g><g><path d="m299 126 114-69 10 11-99 87z" fill="#6d7784"/><path d="m417 53-5-21-83-32-8 14 60 43 29 6z" fill="#373e48"/><path d="m427 63 32 4 53 56-14 11-69-37-10-28z" fill="#373e48"/><ellipse cx="417" cy="63" fill="#dfe2e8" rx="20" ry="18"/><path d="m315 123 32-14 4 4-28 30z" fill="#373e48"/></g><g><path d="m179 125-79-39-9 13 75 53z" fill="#6d7784"/><path d="m99.218 91 29.782-5 60-64-15-22-69 48-11 32z" fill="#373e48"/><path d="m87 86-33 5-54 61 7 15 62-38 22-33z" fill="#373e48"/><ellipse cx="94" cy="91" fill="#dfe2e8" rx="20" ry="18"/><path d="m174 128-35-14-4 3 32 28z" fill="#373e48"/></g><g><path d="m179 387-114 40-6-18 110-55z" fill="#6d7784"/><path d="m63 421 2 33 42 58 15-9-22-64-29-22z" fill="#373e48"/><path d="m63 404v-18l-51-45-12 14 31 47 23 8z" fill="#373e48"/><ellipse cx="65" cy="417" fill="#dfe2e8" rx="20" ry="18"/><path d="m162 364-38 23 4 5 44-11z" fill="#373e48"/></g><g><ellipse cx="262" cy="422" fill="#6d7784" rx="40" ry="30"/><g fill="#373e48"><path d="m247 424-3 14h38l-6-15z"/><ellipse cx="263" cy="437" rx="12" ry="6"/><path d="m318 184 17-31-20-41-32-6z"/><path d="m180 189-28-36 21-37 45-7z"/><path d="m180 311-36 39 43 72 145-7 35-79-37-30z"/></g><path d="m202 102 77-5 38 43 21 191-21 94-110 8-33-75v-201z" fill="#dfe2e8"/><path d="m319.699 164.546-23.699-1.546-1-17-28-37-53 3-23 39v19l-17 3.269v7.001l28-2.27-4-25 20-35 47 1 19 28 5 28 31.651-1.792z" fill="#6d7784"/><path d="m334.792 301.817-1.025-9.319-18.767 2.502-2 48-19 48h-13l-11-14-27 2-7 12h-12l-19-39-5-54-26 2.6v7.4h19l1 44 23 51h85l21-58-2-40z" fill="#6d7784"/><ellipse cx="256" cy="307" fill="#6d7784" rx="6" ry="4"/><path d="m245 391h28l-6-8-19 1z" fill="#9fe368"/><path d="m174 273.567 19-14.567v-38l-19-8.261z" fill="#6d7784"/><path d="m324.274 206.157-15.274 8.843v35l20.886 7.202z" fill="#6d7784"/><g><ellipse cx="258" cy="335" fill="#6d7784" rx="16" ry="14"/><ellipse cx="258" cy="335" fill="#373e48" rx="8" ry="6"/></g></g></g></svg>