<svg id="Capa_1" enable-background="new 0 0 480 480" height="512" viewBox="0 0 480 480" width="512" xmlns="http://www.w3.org/2000/svg"><g><path d="m176.01 416.009c-8.492.023-16.641-3.352-22.63-9.372l-144.021-144.007c-12.479-12.505-12.479-32.752 0-45.257l144.021-144.007c12.497-12.498 32.761-12.499 45.259-.002s12.499 32.761.002 45.259l-121.39 121.378 121.39 121.378c12.498 12.495 12.501 32.757.005 45.255-6.003 6.004-14.145 9.376-22.636 9.375zm-11.31-20.687c6.249 6.249 16.381 6.25 22.63.001s6.25-16.381.001-22.63l-127.053-127.035c-3.124-3.124-3.124-8.189 0-11.314l127.048-127.035c6.286-6.21 6.348-16.341.137-22.627-6.21-6.286-16.341-6.348-22.627-.137-.046.045-.091.091-.136.136l-144.026 144.006c-6.249 6.248-6.25 16.379-.002 22.627l.002.002z"/><path d="m303.99 416.009c-17.673.003-32.003-14.321-32.006-31.994-.002-8.49 3.371-16.633 9.375-22.636l121.39-121.378-121.39-121.378c-12.497-12.498-12.496-32.762.002-45.259s32.762-12.496 45.259.002l144.021 144.007c12.479 12.505 12.479 32.752 0 45.257l-144.021 144.006c-5.989 6.021-14.138 9.396-22.63 9.373zm0-336.007c-8.837.002-15.998 7.168-15.996 16.004.001 4.239 1.684 8.304 4.68 11.303l127.048 127.035c3.124 3.124 3.124 8.189 0 11.314l-127.048 127.035c-6.249 6.249-6.248 16.381.001 22.63s16.381 6.248 22.63-.001l144.021-144.006c6.249-6.248 6.25-16.379.002-22.627-.001-.001-.001-.001-.002-.002l-144.021-144.007c-2.999-3.002-7.071-4.686-11.315-4.678z"/></g></svg>