<?xml version="1.0" encoding="iso-8859-1"?>
<!-- Generator: Adobe Illustrator 17.1.0, SVG Export Plug-In . SVG Version: 6.00 Build 0)  -->
<!DOCTYPE svg PUBLIC "-//W3C//DTD SVG 1.1//EN" "http://www.w3.org/Graphics/SVG/1.1/DTD/svg11.dtd">
<svg version="1.1" id="Capa_1" xmlns="http://www.w3.org/2000/svg" xmlns:xlink="http://www.w3.org/1999/xlink" x="0px" y="0px"
	 viewBox="0 0 510.994 510.994" style="enable-background:new 0 0 510.994 510.994;" xml:space="preserve">
<g>
	<path d="M504.958,24.585c-8.038-8.038-21.117-8.038-29.155,0L290.001,210.386c-0.08,0.076-0.158,0.154-0.234,0.234L277.7,222.687
		c-6.314-4.281-13.925-6.784-22.111-6.784c-21.781,0-39.502,17.721-39.502,39.502c0,8.186,2.504,15.797,6.784,22.111l-8.74,8.74
		l-59.317-22.814c-8.956-3.444-18.996-0.319-24.455,7.659L3.599,460.19c-5.598,8.183-4.573,19.209,2.437,26.219
		c4.019,4.019,9.298,6.029,14.578,6.029s10.559-2.01,14.578-6.029l185.978-185.978c0.086-0.082,0.17-0.166,0.253-0.252
		l12.056-12.057c6.314,4.281,13.925,6.784,22.111,6.784c21.781,0,39.502-17.721,39.502-39.502c0-8.186-2.504-15.797-6.784-22.111
		l8.74-8.74l59.317,22.814c2.434,0.937,4.948,1.387,7.429,1.387c6.646,0,13.051-3.237,17.027-9.048L507.395,50.803
		C512.994,42.621,511.969,31.595,504.958,24.585z M24.584,475.803c-2.189,2.189-5.753,2.189-7.942,0
		c-1.91-1.91-2.188-4.914-0.624-7.202l126.762-189.09c1.074-1.57,2.815-2.448,4.625-2.448c0.676,0,1.362,0.123,2.026,0.378
		l53.094,20.421L24.584,475.803z M255.589,279.906c-13.51,0-24.502-10.992-24.502-24.502c0-13.51,10.992-24.502,24.502-24.502
		c13.51,0,24.502,10.992,24.502,24.502C280.091,268.915,269.1,279.906,255.589,279.906z M494.975,42.394L368.399,231.297
		c-1.476,2.158-4.209,3.011-6.651,2.071l-53.094-20.421L486.41,35.191c2.189-2.189,5.753-2.189,7.942,0
		C496.262,37.101,496.54,40.105,494.975,42.394z"/>
	<path d="M255.609,247.904h-0.01c-4.142,0-7.495,3.358-7.495,7.5c0,4.142,3.363,7.5,7.505,7.5c4.142,0,7.5-3.358,7.5-7.5
		C263.109,251.262,259.751,247.904,255.609,247.904z"/>
</g>
<g>
</g>
<g>
</g>
<g>
</g>
<g>
</g>
<g>
</g>
<g>
</g>
<g>
</g>
<g>
</g>
<g>
</g>
<g>
</g>
<g>
</g>
<g>
</g>
<g>
</g>
<g>
</g>
<g>
</g>
</svg>
