<?xml version="1.0" encoding="iso-8859-1"?>
<!-- Generator: Adobe Illustrator 19.0.0, SVG Export Plug-In . SVG Version: 6.00 Build 0)  -->
<svg version="1.1" id="Layer_1" xmlns="http://www.w3.org/2000/svg" xmlns:xlink="http://www.w3.org/1999/xlink" x="0px" y="0px"
	 viewBox="0 0 512 512" style="enable-background:new 0 0 512 512;" xml:space="preserve">
<g>
	<g>
		<path d="M463.647,0H48.353C21.691,0,0,21.691,0,48.353v415.294C0,490.309,21.691,512,48.353,512h415.294
			C490.309,512,512,490.309,512,463.647V48.353C512,21.691,490.309,0,463.647,0z M496.327,463.647
			c0,18.019-14.66,32.679-32.679,32.679H48.353c-18.019,0-32.679-14.66-32.679-32.679V48.353c0-18.019,14.66-32.679,32.679-32.679
			h415.294c18.02,0,32.68,14.66,32.68,32.679V463.647z"/>
	</g>
</g>
<g>
	<g>
		<path d="M149.42,120.115V97.698c0-19.013-15.469-34.482-34.482-34.482S80.457,78.685,80.457,97.698v22.417
			c-15.466,10.882-25.6,28.853-25.6,49.157c0,20.305,10.134,38.276,25.6,49.157v195.872c0,19.013,15.469,34.482,34.482,34.482
			s34.482-15.469,34.482-34.482V218.43c15.466-10.881,25.6-28.853,25.6-49.157C175.02,148.968,164.886,130.997,149.42,120.115z
			 M96.131,97.698c0-10.371,8.438-18.808,18.808-18.808s18.808,8.438,18.808,18.808v14.524c-5.92-1.957-12.24-3.031-18.808-3.031
			s-12.888,1.074-18.808,3.031V97.698z M133.747,414.302c0,10.371-8.438,18.808-18.808,18.808s-18.808-8.438-18.808-18.808V226.323
			c5.92,1.957,12.24,3.031,18.808,3.031s12.888-1.074,18.808-3.031V414.302z M114.939,213.681
			c-24.487,0-44.408-19.921-44.408-44.408c0-24.486,19.921-44.408,44.408-44.408s44.408,19.921,44.408,44.408
			C159.347,193.76,139.426,213.681,114.939,213.681z"/>
	</g>
</g>
<g>
	<g>
		<path d="M114.939,140.538c-15.844,0-28.735,12.89-28.735,28.735c0,15.845,12.891,28.735,28.735,28.735s28.735-12.89,28.735-28.735
			C143.673,153.428,130.783,140.538,114.939,140.538z M114.939,182.334c-7.202,0-13.061-5.859-13.061-13.061
			c0-7.202,5.859-13.061,13.061-13.061S128,162.07,128,169.272C128,176.475,122.141,182.334,114.939,182.334z"/>
	</g>
</g>
<g>
	<g>
		<path d="M290.482,288.344V97.698c0-19.013-15.469-34.482-34.482-34.482s-34.482,15.469-34.482,34.482v190.646
			c-15.466,10.882-25.6,28.853-25.6,49.157s10.134,38.276,25.6,49.157v27.644c0,19.013,15.469,34.482,34.482,34.482
			s34.482-15.469,34.482-34.482v-27.644c15.466-10.882,25.6-28.853,25.6-49.157C316.082,317.197,305.947,299.225,290.482,288.344z
			 M237.192,97.698c0-10.371,8.438-18.808,18.808-18.808c10.371,0,18.808,8.438,18.808,18.808v182.753
			c-5.92-1.957-12.24-3.031-18.808-3.031c-6.568,0-12.888,1.074-18.808,3.031V97.698z M274.808,414.302
			c0,10.371-8.438,18.808-18.808,18.808c-10.371,0-18.808-8.438-18.808-18.808v-19.751c5.92,1.957,12.24,3.031,18.808,3.031
			c6.568,0,12.888-1.074,18.808-3.031V414.302z M256,381.909c-24.487,0-44.408-19.921-44.408-44.408
			c0-24.486,19.921-44.408,44.408-44.408s44.408,19.922,44.408,44.408C300.408,361.988,280.487,381.909,256,381.909z"/>
	</g>
</g>
<g>
	<g>
		<path d="M256,308.766c-15.844,0-28.735,12.89-28.735,28.735s12.891,28.735,28.735,28.735c15.844,0,28.735-12.89,28.735-28.735
			S271.844,308.766,256,308.766z M256,350.562c-7.202,0-13.061-5.859-13.061-13.061c0-7.202,5.859-13.061,13.061-13.061
			c7.203,0,13.061,5.859,13.061,13.061C269.061,344.703,263.203,350.562,256,350.562z"/>
	</g>
</g>
<g>
	<g>
		<path d="M397.061,203.232c-15.844,0-28.735,12.89-28.735,28.735s12.891,28.735,28.735,28.735c15.844,0,28.735-12.89,28.735-28.735
			S412.905,203.232,397.061,203.232z M397.061,245.028c-7.202,0-13.061-5.859-13.061-13.061c0-7.203,5.859-13.061,13.061-13.061
			c7.203,0,13.061,5.859,13.061,13.061C410.122,239.169,404.264,245.028,397.061,245.028z"/>
	</g>
</g>
<g>
	<g>
		<path d="M431.543,182.809V97.698c0-19.013-15.469-34.482-34.482-34.482S362.58,78.685,362.58,97.698v85.111
			c-15.466,10.882-25.6,28.853-25.6,49.157s10.134,38.276,25.6,49.157v133.179c0,19.013,15.469,34.482,34.482,34.482
			s34.482-15.469,34.482-34.482V281.124c15.466-10.882,25.6-28.853,25.6-49.157S447.008,193.691,431.543,182.809z M378.253,97.698
			c0-10.371,8.438-18.808,18.808-18.808s18.808,8.438,18.808,18.808v77.218c-5.92-1.957-12.24-3.031-18.808-3.031
			s-12.888,1.074-18.808,3.031V97.698z M415.869,414.302c0,10.371-8.438,18.808-18.808,18.808s-18.808-8.438-18.808-18.808V289.017
			c5.92,1.957,12.24,3.031,18.808,3.031s12.888-1.074,18.808-3.031V414.302z M397.061,276.374
			c-24.487,0-44.408-19.921-44.408-44.408c0-24.486,19.921-44.408,44.408-44.408s44.408,19.922,44.408,44.408
			C441.469,256.453,421.548,276.374,397.061,276.374z"/>
	</g>
</g>
<g>
</g>
<g>
</g>
<g>
</g>
<g>
</g>
<g>
</g>
<g>
</g>
<g>
</g>
<g>
</g>
<g>
</g>
<g>
</g>
<g>
</g>
<g>
</g>
<g>
</g>
<g>
</g>
<g>
</g>
</svg>
