<?xml version="1.0" encoding="iso-8859-1"?>
<!-- Generator: Adobe Illustrator 19.0.0, SVG Export Plug-In . SVG Version: 6.00 Build 0)  -->
<svg version="1.1" id="Layer_1" xmlns="http://www.w3.org/2000/svg" xmlns:xlink="http://www.w3.org/1999/xlink" x="0px" y="0px"
	 viewBox="0 0 512 512" style="enable-background:new 0 0 512 512;" xml:space="preserve">
<g>
	<g>
		<path d="M469.735,87.389L323.164,3.853C318.742,1.332,313.711,0,308.614,0c-5.134,0-10.195,1.349-14.636,3.901
			c-9.021,5.181-14.623,14.834-14.623,25.192v29.05H153.21c-69.288,0-125.657,55.964-125.657,124.751
			c0,25.614,7.764,50.227,22.451,71.182c5.618,8.013,12.158,15.357,19.441,21.833c5.376,4.773,12.302,7.401,19.504,7.401
			c4.129,0,8.138-0.848,11.908-2.521c10.538-4.671,17.347-15.102,17.347-26.573v-38.374c0-30.256,24.834-54.872,55.359-54.872
			h105.792v35.199c0,10.357,5.603,20.01,14.623,25.193c4.444,2.552,9.505,3.901,14.636,3.901c5.098,0,10.129-1.332,14.55-3.853
			l146.571-83.539c9.075-5.172,14.711-14.844,14.711-25.242S478.809,92.56,469.735,87.389z M461.974,124.257l-146.572,83.539
			c-4.134,2.357-9.489,2.348-13.616-0.022c-4.168-2.395-6.757-6.84-6.757-11.603v-43.036c0-4.328-3.508-7.837-7.837-7.837H173.563
			c-39.167,0-71.032,31.647-71.032,70.545v38.374c0,5.277-3.15,10.083-8.027,12.244c-1.76,0.781-3.629,1.176-5.555,1.176
			c-3.362,0-6.593-1.225-9.093-3.444c-6.372-5.666-12.098-12.098-17.018-19.115c-12.829-18.303-19.612-39.805-19.612-62.184
			c0-60.143,49.339-109.076,109.984-109.076h133.982c4.329,0,7.837-3.509,7.837-7.837V29.094c0-4.763,2.589-9.209,6.757-11.603
			c4.126-2.37,9.477-2.381,13.617-0.022l146.571,83.539c4.194,2.391,6.799,6.844,6.799,11.625
			C468.774,117.412,466.169,121.866,461.974,124.257z"/>
	</g>
</g>
<g>
	<g>
		<path d="M461.995,257.925c-5.62-8.018-12.162-15.363-19.441-21.831c-5.37-4.775-12.296-7.405-19.503-7.405
			c-4.129,0-8.137,0.848-11.911,2.522c-10.536,4.671-17.344,15.101-17.344,26.572v38.373c0,30.256-24.834,54.872-55.359,54.872
			H232.642v-35.198c0-10.358-5.602-20.011-14.623-25.195c-4.445-2.551-9.505-3.899-14.634-3.899c-5.097,0-10.128,1.332-14.55,3.852
			l-146.576,83.54c-9.072,5.172-14.706,14.843-14.706,25.241c0,10.398,5.635,20.069,14.707,25.242l146.574,83.537
			c4.421,2.521,9.453,3.854,14.551,3.854c5.129,0,10.191-1.349,14.637-3.902c9.018-5.182,14.62-14.834,14.62-25.193v-29.05h126.145
			c69.288,0,125.659-55.964,125.659-124.751C484.447,303.489,476.682,278.876,461.995,257.925z M358.788,438.181H224.806
			c-4.329,0-7.837,3.509-7.837,7.837v36.887c0,4.763-2.589,9.209-6.753,11.602c-4.135,2.373-9.484,2.381-13.619,0.023
			L50.022,410.992c-4.192-2.39-6.796-6.844-6.796-11.625s2.604-9.235,6.795-11.625l146.575-83.54
			c2.062-1.175,4.408-1.796,6.789-1.796c2.396,0,4.758,0.629,6.828,1.817c4.166,2.395,6.755,6.84,6.755,11.604v43.035
			c0,4.328,3.508,7.837,7.837,7.837h113.631c39.167,0,71.032-31.647,71.032-70.545v-38.373c0-5.277,3.149-10.083,8.024-12.244
			c1.762-0.781,3.632-1.177,5.558-1.177c3.363,0,6.591,1.223,9.091,3.446c6.372,5.661,12.097,12.092,17.019,19.113
			c12.83,18.301,19.613,39.803,19.613,62.182C468.774,389.25,419.434,438.181,358.788,438.181z"/>
	</g>
</g>
<g>
	<g>
		<path d="M298.841,379.82h-72.507c-4.329,0-7.837,3.509-7.837,7.837c0,4.328,3.508,7.837,7.837,7.837h72.507
			c4.329,0,7.837-3.509,7.837-7.837C306.678,383.329,303.17,379.82,298.841,379.82z"/>
	</g>
</g>
<g>
	<g>
		<path d="M266.616,406.579h-40.282c-4.329,0-7.837,3.509-7.837,7.837c0,4.328,3.508,7.837,7.837,7.837h40.282
			c4.329,0,7.837-3.509,7.837-7.837C274.453,410.088,270.945,406.579,266.616,406.579z"/>
	</g>
</g>
<g>
	<g>
		<path d="M288.392,88.294h-72.507c-4.329,0-7.837,3.509-7.837,7.837c0,4.328,3.509,7.837,7.837,7.837h72.507
			c4.329,0,7.837-3.509,7.837-7.837C296.229,91.803,292.721,88.294,288.392,88.294z"/>
	</g>
</g>
<g>
	<g>
		<path d="M288.392,115.053H248.11c-4.329,0-7.837,3.509-7.837,7.837c0,4.328,3.508,7.837,7.837,7.837h40.282
			c4.329,0,7.837-3.509,7.837-7.837C296.229,118.561,292.721,115.053,288.392,115.053z"/>
	</g>
</g>
<g>
</g>
<g>
</g>
<g>
</g>
<g>
</g>
<g>
</g>
<g>
</g>
<g>
</g>
<g>
</g>
<g>
</g>
<g>
</g>
<g>
</g>
<g>
</g>
<g>
</g>
<g>
</g>
<g>
</g>
</svg>
